<?xml version="1.0" encoding="UTF-8" standalone="no"?>
<!DOCTYPE svg PUBLIC "-//W3C//DTD SVG 1.1//EN" "http://www.w3.org/Graphics/SVG/1.1/DTD/svg11.dtd">
<svg width="100%" height="100%" viewBox="0 0 1024 1024" version="1.1" xmlns="http://www.w3.org/2000/svg" xmlns:xlink="http://www.w3.org/1999/xlink" xml:space="preserve" xmlns:serif="http://www.serif.com/" style="fill-rule:evenodd;clip-rule:evenodd;stroke-linejoin:round;stroke-miterlimit:2;">
    <path d="M653.436,447.341C664.096,438.475 675.782,430.937 689.132,425.548C701.239,420.285 714.078,417.627 727.666,417.635C739.527,416.752 749.735,417.738 759.178,419.589C771.647,422.923 783.703,427.778 795.279,434.409C806.038,441.104 815.695,448.805 824.578,457.213C833.753,467.344 841.886,478.311 848.267,490.684C855.776,503.329 859.565,517.629 860.576,533.164C862.575,549.337 860.536,569.823 855.382,585.177C851.908,595.523 846.44,608.567 831.693,626.665L741.893,719.57C740.831,721.26 738.945,722.372 736.318,722.965C735.199,722.914 734.179,722.49 733.22,721.835C732.177,721.271 731.318,720.46 730.617,719.437C729.657,718.458 729.347,717.094 729.534,715.436C731.649,708.545 731.649,700.423 731.843,692.414C731.65,683.147 731.117,674.107 727.804,666.911C726.768,664.98 726.513,663.894 726.126,662.115C725.375,660.657 725.213,657.884 725.397,655.876C725.117,654.425 725.519,652.826 726.698,651.06C747.209,630.485 767.755,609.933 787.407,588.787C793.528,582.268 798.192,574.986 799.636,566.019C801.79,556.582 803.533,547.054 801.33,537.362C800.184,531.126 798.023,525.151 794.93,519.5C791.836,513.623 787.825,508.353 783.396,503.36C780.113,498.831 775.751,495.109 771.144,491.57C764.165,485.876 757.301,480.907 748.86,479.215C738.066,477.053 727.272,477.06 716.478,479.029C706.747,481.404 698.219,486.077 690.836,492.939L585.496,600.261L578.686,610.648C570.878,620.411 568.076,631.381 570.244,643.551C571.496,656.295 575.963,666.644 583.837,674.454L609.472,700.058C611.941,703.196 612.399,705.591 612.378,707.88C612.348,711.091 611.599,712.962 610.477,714.14L583.484,742.327C581.356,744.076 578.901,744.701 576.18,744.414C574.079,744.073 572.223,743.319 570.69,742.02C553.602,728.22 538.629,712.149 526.159,693.394C520.405,685.631 516.679,677.206 515.476,667.958L467.349,717.55C458.537,725.333 452.565,734.205 450.248,744.479C444.355,767.836 448.247,787.789 460.644,805.169C472.655,822.009 488.531,832.234 512,831.982C529.513,832.448 544.847,827.895 557.145,816.348L635.009,736.056C644.422,725.761 649.151,714.031 649.622,700.995C649.316,687.652 646.091,676.463 638.625,668.402L607.156,634.72C605.621,632.327 605.684,630.231 605.748,629.193C605.895,626.794 606.303,624.882 607.79,622.893L640.846,589.825C642.444,588.395 644.25,587.833 646.266,588.142C648.146,588.441 649.71,589.151 651.045,590.157L679.369,619.001C688.046,627.95 697.778,646.156 703.557,663.249C708.914,681.368 710.249,700.654 706.176,721.512C701.902,741.456 692.895,759.676 678.572,775.959L600.41,856.337C584.209,874.725 561.125,886.352 530.946,891.01C495.274,897.426 463.212,885.344 433.005,863.752C407.232,843.663 392.407,814.686 388.696,776.686C384.422,734.04 400.649,701.435 427.603,674.085L653.436,447.341Z"/>
    <path d="M422.066,108.367C420.716,108.22 419.145,108.26 418.217,109.228L214.059,341.209L324.183,404.533C324.183,404.533 397.042,183.998 413.305,134.775C416.122,126.248 422.066,108.367 422.066,108.367Z" style="fill:rgb(185,121,249);"/>
    <path d="M214.059,341.209L184.995,615.947L255.152,653.839L324.183,404.533L214.059,341.209Z" style="fill:rgb(97,44,174);"/>
    <path d="M324.183,404.533L353.047,420.236L579.355,327.473L423.925,109.179C423.727,108.935 423.48,108.78 423.231,108.653C422.876,108.472 422.587,108.42 422.066,108.367L324.183,404.533Z" style="fill:rgb(158,89,235);"/>
    <path d="M353.047,420.236L418.046,632.427L565.872,485.705L579.355,327.568L353.047,420.236Z" style="fill:rgb(130,66,211);"/>
    <g transform="matrix(1,0,0,1.00129,0,-1.13155)">
        <path d="M345.171,874.809L341.48,878.488L338.439,879.17L333.882,877.599L184.995,616.247L254.589,653.406C281.924,729.63 312.268,803.584 345.171,874.809Z" style="fill:rgb(97,44,174);"/>
    </g>
    <path d="M254.589,653.839L324.183,404.533L353.047,420.236L418.094,632.427C388.289,661.891 366.658,693.807 358.304,728.249C350.942,758.605 352.381,786.061 360.54,811.301L371.313,844.159L371.438,847.221L369.749,850.307L345.171,874.809C312.268,803.584 281.924,730.063 254.589,653.839Z" style="fill:rgb(113,54,192);"/>
</svg>
